<svg xmlns="http://www.w3.org/2000/svg" viewBox="610 302 313 356"><path fill="#0FA167" d=" M871,459 C879.87,463.08 888.79,467.03 897.58,471.28 C904.08,474.42 910.39,477.93 916.48,481.12 C916.48,505.62 917.07,529.61 916.14,553.55 C915.84,561.38 911.61,568.85 903.85,573.46 C885.38,584.41 867.14,595.74 848.31,606.72 C847.84,604.88 848.29,603.08 847.78,601.61 C846.83,598.88 845.86,596.1 841.63,596.76 C839.22,597.13 836.43,596.32 834.06,595.41 C831.18,594.3 828.59,592.48 825.83,591.06 C823.84,590.05 821.31,589.65 819.83,588.17 C816.26,584.6 812.68,580.86 810.04,576.6 C807.84,573.04 805.89,573.12 802.81,574.79 C801.01,575.77 798.97,576.3 797.03,577.04 C805.55,571.5 814.03,565.91 822.6,560.46 C827.03,557.64 832.46,555.86 835.92,552.18 C840.14,547.7 847.16,547.62 850.14,540.44 C851.86,536.29 851.5,532.7 852.45,528.47 C853,528.13 853.37,528.22 853.79,528.66 C856.71,535.61 858.86,536.16 863.83,531.77 C865.3,530.47 866.92,528.88 868.7,528.47 C878.06,526.33 885.2,521.12 890.99,513.67 C892.06,512.28 893.66,510.64 895.22,510.39 C903.03,509.14 906.79,502.92 911.11,497.64 C914.79,493.15 912.88,487.72 912.63,481.85 C908.89,484.65 906.02,486.8 903.22,488.61 C904.59,486.4 906.35,484.68 907.05,482.6 C907.51,481.21 907.01,478.39 906,477.81 C899.9,474.25 893.53,471.14 886.97,467.67 C883.46,465.97 880.22,464.48 876.88,462.83 C876.63,462.4 876.41,462.26 875.79,462.1 C873.89,461.08 872.31,460.18 870.8,459.22 C870.87,459.14 871,459 871,459 M914.54,498.39 C914.36,499.41 914.19,500.43 914.01,501.45 C914.3,501.47 914.59,501.48 914.89,501.5 C914.89,500.59 914.89,499.67 914.54,498.39 M914.51,517.03 C914.41,517.26 914.29,517.49 914.22,517.73 C914.21,517.78 914.4,517.88 914.5,517.96 C914.59,517.72 914.67,517.47 914.51,517.03 z" /><path fill="#72F098" d=" M731.16,387.27 C724.34,391.17 717.52,395.07 710.11,398.81 C705.07,401.2 700.62,403.75 696.16,406.29 C696.16,406.29 696.15,406.2 695.88,406.21 C695.11,406.58 694.61,406.94 694.11,407.3 C694.11,407.3 694.11,407.17 693.8,407.18 C686.52,410.55 679.55,413.91 672.07,417.52 C676.02,425.44 682.96,427.06 689.43,429.39 C689.43,429.39 689.58,429.41 689.5,429.85 C690.61,433.54 691.79,436.78 692.57,440.1 C687.7,440.79 683.25,441.31 680.5,445.72 C678.47,448.96 675.9,451.87 674.03,455.19 C671.29,460.05 669.24,465.31 666.34,470.06 C663.98,473.93 660.82,477.31 657.67,481.12 C657.12,481.51 656.91,481.67 656.7,481.84 C656.7,481.84 656.4,481.88 656.35,481.38 C655.39,480.55 654.49,480.21 653.59,479.87 C653.59,479.87 653.28,479.9 653.23,479.42 C651.67,477.73 650.28,476.27 648.6,475.34 C641.28,471.28 639.9,467.22 642.69,459.23 C645.03,452.53 648.07,445.78 648.73,438.85 C650.07,424.69 656.11,413.44 665.77,403.39 C668.61,400.44 669.89,395.83 671.37,391.79 C673.39,386.25 673.4,379.2 676.95,375.14 C686.03,364.75 696.88,355.93 706.45,345.93 C712.46,339.65 719.59,335.25 726.79,330.76 C727.7,330.2 728.25,329.05 728.97,328.18 C736.97,323.52 744.98,318.87 752.97,314.21 C758.38,311.06 763.94,308.68 770.47,309.67 C771.83,309.87 773.33,309.08 774.32,308.85 C774.5,309.27 774.71,309.76 774.59,310.58 C768.48,311.11 763.1,312.34 759.26,317.14 C757.31,319.59 755.62,322.23 753.68,324.68 C747.46,332.5 741.29,340.38 734.83,348.01 C733.02,350.16 730.23,351.48 727.95,353.25 C726.16,354.63 723.61,355.8 722.89,357.64 C720.7,363.18 718.39,367.98 713.01,371.65 C709.92,373.76 708.98,379.03 706.74,383.57 C715.49,384.68 722.67,389.72 731.16,387.27 z" /><path fill="#7FF49E" d=" M728.69,328.13 C728.25,329.05 727.7,330.2 726.79,330.76 C719.59,335.25 712.46,339.65 706.45,345.93 C696.88,355.93 686.03,364.75 676.95,375.14 C673.4,379.2 673.39,386.25 671.37,391.79 C669.89,395.83 668.61,400.44 665.77,403.39 C656.11,413.44 650.07,424.69 648.73,438.85 C648.07,445.78 645.03,452.53 642.69,459.23 C639.9,467.22 641.28,471.28 648.6,475.34 C650.28,476.27 651.67,477.73 653.18,479.27 C643.67,473.96 633.86,468.77 624.79,462.5 C619.83,459.07 615.69,454.75 616.24,446.95 C617.2,433.53 616.45,419.99 616.54,406.5 C616.59,400.3 618.72,394.97 622.52,389.87 C626.55,384.46 632.49,382.56 637.81,379.48 C649.38,372.77 661.03,366.2 672.73,359.71 C681.44,354.87 690.37,350.41 699.03,345.5 C707.72,340.56 716.2,335.26 724.77,330.13 C725.97,329.42 727.2,328.77 728.69,328.13 z" /><path fill="#017B4B" d=" M810.09,630.32 C809.73,630.59 809.38,630.85 808.5,631.2 C807.66,631.55 807.33,631.81 807,632.07 C807,632.07 807.04,632.02 806.77,632.08 C806,632.46 805.5,632.78 805,633.09 C805,633.09 805.03,633.02 804.74,633.12 C803.97,633.66 803.5,634.11 803.03,634.56 C794.05,639.85 785.32,645.65 776,650.23 C770.26,653.06 763.91,651.03 758.41,648.01 C746.64,641.57 734.97,634.94 723.32,628.3 C721.59,627.31 719.04,626.25 721.74,622.9 C726.74,619.66 731.66,617.25 736.26,614.34 C748.82,606.39 761.27,598.26 773.71,590.12 C774.99,589.28 775.88,587.85 776.96,586.7 C777.5,587.07 778.04,587.43 778.72,588.21 C779.48,590.18 780.29,591.69 780.68,593.29 C781.89,598.21 782.46,603.34 784.2,608.04 C785.72,612.14 788.95,614.63 793.99,612.87 C794.86,612.57 796.29,613.48 797.32,614.08 C798.96,615.03 800.38,616.42 802.07,617.24 C808.31,620.27 811.07,624.64 810.09,630.32 z" /><path fill="#65EA91" d=" M731.13,387.24 C722.67,389.72 715.49,384.68 706.74,383.57 C708.98,379.03 709.92,373.76 713.01,371.65 C718.39,367.98 720.7,363.18 722.89,357.64 C723.61,355.8 726.16,354.63 727.95,353.25 C730.23,351.48 733.02,350.16 734.83,348.01 C741.29,340.38 747.46,332.5 753.68,324.68 C755.62,322.23 757.31,319.59 759.26,317.14 C763.1,312.34 768.48,311.11 774.69,310.84 C775.13,310.79 775.05,310.81 775.29,311.03 C776.44,311.47 777.34,311.68 778.25,311.9 C778.25,311.9 778.63,311.85 779.06,312.12 C780.12,312.55 780.74,312.7 781.37,312.86 C784.63,314.51 787.9,316.17 791.06,318.14 C789.98,318.3 788.95,318.31 788.06,317.98 C782.28,315.79 781.64,316.33 779.94,322.09 C778.88,325.65 776.82,328.92 775.16,332.31 C774.52,333.62 773.43,334.8 773.13,336.17 C772,341.29 770.93,346.44 770.23,351.63 C769.88,354.2 770.15,356.93 770.58,359.51 C771.03,362.14 772.02,364.69 772.7,367.02 C775.31,368.3 778.17,369.7 780.61,371.05 C777.42,370.64 774.65,370.15 771.86,369.95 C763.68,369.34 756.9,373.35 749.82,376.71 C749.38,376.61 749.16,376.76 749.02,377.04 C749.01,377.01 749.06,377.06 748.69,377.05 C747.23,377.71 746.14,378.39 745.02,379.05 C744.99,379.02 745.06,379.05 744.77,379.09 C743.99,379.44 743.5,379.75 743.02,380.04 C743.02,380 743.06,380.06 742.76,380.09 C741.98,380.45 741.49,380.77 741.02,381.05 C741.04,381.02 741.09,381.07 740.74,381.1 C738.98,382.18 737.57,383.24 736.16,384.29 C736.16,384.29 736.15,384.2 735.88,384.21 C735.09,384.57 734.58,384.92 734.07,385.27 C734.07,385.27 734.07,385.14 733.82,385.17 C733.07,385.55 732.58,385.91 732.08,386.28 C732.08,386.28 732.06,386.08 731.93,386.23 C731.58,386.69 731.36,386.98 731.13,387.28 C731.13,387.28 731.11,387.21 731.13,387.24 z" /><path fill="#3BDC87" d=" M776.66,586.76 C775.88,587.85 774.99,589.28 773.71,590.12 C761.27,598.26 748.82,606.39 736.26,614.34 C731.66,617.25 726.74,619.66 721.9,622.53 C719.43,624.94 717.13,624.68 714.5,622.92 C711.69,621.03 708.59,619.57 705.28,617.92 C704.93,617.92 704.99,617.96 704.99,617.96 C705.04,617.8 705.09,617.64 705.08,617.16 C705.02,616.84 704.87,616.7 704.87,616.7 C704.87,616.7 704.63,616.91 704.63,616.91 C704.63,616.91 704.3,616.95 704.41,616.37 C705.53,612.16 704.89,609.7 700.57,608.84 C699.36,608.59 697.58,606.4 697.68,605.24 C698.36,597.55 702.79,591.36 708.24,586.74 C713.05,582.67 718.25,579.38 721.42,573.61 C722.48,571.68 724.92,569.56 726.97,569.29 C733.1,568.48 739.51,566.86 745.31,570.82 C745.31,570.82 745.16,570.82 745.3,571.08 C746.7,571.83 747.96,572.32 749.23,572.8 C749.23,572.8 749.16,572.83 749.21,572.92 C749.26,573.02 749.6,573.22 749.6,573.22 C749.6,573.22 749.99,573.07 749.99,573.07 C754.47,575.41 758.95,577.75 763.77,580.1 C764.12,580.12 764.05,580.06 764.05,580.06 C767.14,581.97 770.23,583.89 773.75,586.14 C774.51,586.58 774.82,586.68 775.14,586.78 C775.55,586.79 775.96,586.81 776.66,586.76 z" /><path fill="#048A56" d=" M810.42,630.2 C811.07,624.64 808.31,620.27 802.07,617.24 C800.38,616.42 798.96,615.03 797.32,614.08 C796.29,613.48 794.86,612.57 793.99,612.87 C788.95,614.63 785.72,612.14 784.2,608.04 C782.46,603.34 781.89,598.21 780.68,593.29 C780.29,591.69 779.48,590.18 778.93,588.36 C784.78,584.46 790.56,580.82 796.69,577.11 C798.97,576.3 801.01,575.77 802.81,574.79 C805.89,573.12 807.84,573.04 810.04,576.6 C812.68,580.86 816.26,584.6 819.83,588.17 C821.31,589.65 823.84,590.05 825.83,591.06 C828.59,592.48 831.18,594.3 834.06,595.41 C836.43,596.32 839.22,597.13 841.63,596.76 C845.86,596.1 846.83,598.88 847.78,601.61 C848.29,603.08 847.84,604.88 847.97,606.81 C835.67,614.76 823.21,622.42 810.42,630.2 z" /><path fill="#57E38A" d=" M692.99,540.97 C699.61,544.67 706.22,548.37 712.59,552.46 C706.28,554.2 701.27,556.58 697.55,562.27 C693.55,568.39 688.3,573.74 683.23,579.09 C681.14,581.28 677.82,582.26 675.56,584.34 C671.33,588.22 672.52,593.39 673.01,598.3 C666.74,594.75 660.48,591.2 654.11,587.15 C652.91,586.17 651.82,585.71 650.73,585.24 C650.73,585.24 650.83,585.22 650.72,584.93 C648.33,583.49 646.05,582.35 643.77,581.2 C643.77,581.2 643.85,581.18 643.75,580.9 C640.53,577.6 641.41,575.01 644.2,572.2 C646.15,570.24 647.4,567.59 649.29,565.54 C652.12,562.46 655.26,559.66 658.24,556.7 C662.53,552.44 667.8,548.73 670.78,543.68 C673.89,538.41 677.42,535.82 683.23,535.77 C683.23,535.77 683.06,535.96 683.16,536.21 C685.6,537.56 687.93,538.66 690.27,539.76 C690.27,539.76 690.17,539.77 690.25,540.01 C691.22,540.49 692.11,540.73 692.99,540.97 z" /><path fill="#57E38A" d=" M781.04,371.09 C778.17,369.7 775.31,368.3 772.7,367.02 C772.02,364.69 771.03,362.14 770.58,359.51 C770.15,356.93 769.88,354.2 770.23,351.63 C770.93,346.44 772,341.29 773.13,336.17 C773.43,334.8 774.52,333.62 775.16,332.31 C776.82,328.92 778.88,325.65 779.94,322.09 C781.64,316.33 782.28,315.79 788.06,317.98 C788.95,318.31 789.98,318.3 791.33,318.32 C791.72,318.21 791.7,318.22 791.77,318.57 C792.66,319.24 793.49,319.55 794.31,319.87 C794.31,319.87 794.71,319.85 794.94,320.31 C797.2,321.78 799.24,322.77 801.27,323.77 C801.27,323.77 801.19,323.79 801.23,323.89 C801.28,323.98 801.6,324.19 801.6,324.19 C801.6,324.19 801.98,324.03 801.98,324.03 C807.31,327.1 812.64,330.16 817.78,333.64 C815.8,336.92 813.91,339.71 812.25,342.64 C809.49,347.52 805.55,352.22 804.51,357.47 C803.03,365.01 799.15,372.43 801.16,380.44 C797.19,378.79 793.55,377.22 789.9,375.64 C789.78,375.53 789.66,375.42 789.12,375.05 C788.15,374.48 787.58,374.17 786.92,373.49 C785.03,372.44 783.23,371.75 781.34,371.13 C781.25,371.2 781.04,371.09 781.04,371.09 z" /><path fill="#48DD87" d=" M673.17,598.58 C672.52,593.39 671.33,588.22 675.56,584.34 C677.82,582.26 681.14,581.28 683.23,579.09 C688.3,573.74 693.55,568.39 697.55,562.27 C701.27,556.58 706.28,554.2 712.75,552.77 C713.15,552.68 713.09,552.73 713.29,552.96 C714.09,553.35 714.69,553.53 715.3,553.7 C715.3,553.7 715.17,553.72 715.34,553.93 C716.09,554.35 716.68,554.56 717.26,554.76 C717.26,554.76 717.14,554.8 717.28,554.99 C717.72,555.42 718.01,555.65 718.31,555.89 C718.31,555.89 718.66,555.85 719,556.11 C719.65,556.53 719.96,556.7 720.27,556.86 C720.27,556.86 720.07,556.88 720.27,557.04 C721.06,557.39 721.65,557.59 722.24,557.79 C722.24,557.79 722.14,557.79 722.28,558.08 C723.7,558.83 724.98,559.3 726.26,559.76 C726.26,559.76 726.11,559.83 726.32,560.01 C726.96,560.41 727.38,560.63 727.8,560.84 C733.56,563.96 739.31,567.07 745.19,570.5 C739.51,566.86 733.1,568.48 726.97,569.29 C724.92,569.56 722.48,571.68 721.42,573.61 C718.25,579.38 713.05,582.67 708.24,586.74 C702.79,591.36 698.36,597.55 697.68,605.24 C697.58,606.4 699.36,608.59 700.57,608.84 C704.89,609.7 705.53,612.16 704.33,616.22 C693.87,610.73 683.6,604.8 673.17,598.58 z" /><path fill="#2DD384" d=" M791,536.98 C788.85,544.63 778.09,550.13 769.35,547.65 C765.81,546.64 762.54,544.65 759.19,543.03 C756.99,541.97 754.86,540.76 752.87,539.12 C752.22,534.57 752.15,530.26 747.25,528.25 C746.08,527.77 745.3,525.29 745.1,523.64 C744.06,515.09 748.28,508.82 754.19,503.27 C756.96,500.66 759.78,499.77 763.67,500.53 C766.64,501.1 769.89,500.25 773.32,500.18 C776.95,503.02 780.28,505.71 783.61,508.4 C783.61,508.4 783.73,508.47 783.55,508.94 C785.91,518.59 788.46,527.79 791,536.98 z" /><path fill="#48DD87" d=" M801.5,380.52 C799.15,372.43 803.03,365.01 804.51,357.47 C805.55,352.22 809.49,347.52 812.25,342.64 C813.91,339.71 815.8,336.92 817.94,333.96 C818.84,333.94 819.36,334.02 820.1,334.63 C821.2,335.45 822.1,335.73 822.99,336.01 C830.47,340.21 837.95,344.4 845.44,349.02 C843.73,351.17 841.44,352.61 840.38,354.68 C836.93,361.43 835.15,369.45 830.41,375 C825.61,380.62 826.04,386.25 825.4,392.21 C820.36,389.76 815.67,387.43 810.77,384.87 C810.03,384.45 809.48,384.25 808.96,384.03 C808.99,384.02 809,384.09 808.79,383.87 C808.04,383.45 807.48,383.25 806.96,383.04 C806.99,383.02 806.99,383.09 806.79,382.87 C806.04,382.45 805.49,382.26 804.96,382.03 C804.98,382.01 804.99,382.08 804.78,381.86 C804.04,381.45 803.49,381.26 802.97,381.03 C802.99,381 802.97,381.07 802.83,380.87 C802.48,380.41 802.23,380.21 801.9,380.25 C801.88,380.44 801.5,380.52 801.5,380.52 z" /><path fill="#23C77E" d=" M853.74,528.31 C853.37,528.22 853,528.13 852.35,528.02 C851.97,527.85 851.89,527.69 852.06,526.97 C852.18,524.46 852.31,522.46 851.86,520.59 C850.64,515.46 849.17,510.39 848.05,505.01 C850.08,502.15 851.69,499.41 853.67,497 C857.42,492.44 861.32,488.01 865.29,483.65 C867.11,481.66 869.05,479.62 871.32,478.25 C873.69,476.81 876.82,476.59 879.1,475.06 C882.08,473.07 884.56,470.32 887.25,467.89 C893.53,471.14 899.9,474.25 906,477.81 C907.01,478.39 907.51,481.21 907.05,482.6 C906.35,484.68 904.59,486.4 902.9,488.66 C902.3,489.06 902.09,489.08 901.49,489.13 C897.36,490.48 892.69,489.13 890.01,493.55 C886.12,499.95 879.89,503.26 873.11,505.95 C865.25,509.07 860.22,515.13 857.08,523.26 C855.95,525.21 854.84,526.76 853.74,528.31 z" /><path fill="#65EA91" d=" M683.1,535.5 C677.42,535.82 673.89,538.41 670.78,543.68 C667.8,548.73 662.53,552.44 658.24,556.7 C655.26,559.66 652.12,562.46 649.29,565.54 C647.4,567.59 646.15,570.24 644.2,572.2 C641.41,575.01 640.53,577.6 643.76,580.94 C635.08,576.84 626.22,572.52 621.12,563.14 C621.57,562.15 621.83,561.59 622.46,561.02 C624.32,560.17 626.09,559.6 627.27,558.44 C629.25,556.46 630.47,553.56 632.69,552.01 C640.5,546.56 646.45,539.7 650.36,531.03 C651.71,528.02 653.84,527.18 657.21,527.78 C658.99,528.1 661.07,526.71 663.37,526.09 C664.22,526.02 664.7,525.97 665.15,525.95 C665.11,525.99 665.03,525.94 665.25,526.16 C666.05,526.56 666.64,526.73 667.55,527 C670.21,528.32 672.54,529.55 674.88,530.78 C677.57,532.27 680.26,533.75 683.1,535.5 z" /><path fill="#3BDC87" d=" M825.73,392.33 C826.04,386.25 825.61,380.62 830.41,375 C835.15,369.45 836.93,361.43 840.38,354.68 C841.44,352.61 843.73,351.17 845.73,349.22 C853.93,353.4 861.85,357.81 869.55,362.55 C867.71,363.94 865.39,364.64 864.58,366.14 C858.54,377.37 852.79,388.76 847.49,399.06 C850.13,401.56 852.52,403.83 854.56,406.01 C850.19,404.28 846.17,402.63 842.15,400.98 C841.61,400.68 841.08,400.38 840.16,399.75 C839.26,399.01 838.73,398.6 837.96,397.97 C837.12,397.52 836.52,397.28 835.95,397.04 C835.99,397.02 835.99,397.09 835.78,396.87 C835,396.47 834.43,396.28 833.9,396.06 C833.93,396.03 833.99,396.09 833.79,395.88 C833.03,395.46 832.48,395.26 831.95,395.04 C831.98,395.02 831.99,395.08 831.78,394.87 C831.03,394.46 830.48,394.26 829.96,394.04 C829.99,394.02 829.99,394.08 829.79,393.87 C829.04,393.46 828.49,393.26 827.96,393.03 C827.98,393 827.97,393.07 827.77,392.86 C827.03,392.46 826.49,392.27 825.94,392.17 C825.93,392.27 825.73,392.33 825.73,392.33 z" /><path fill="#48DD87" d=" M783.47,508.08 C780.28,505.71 776.95,503.02 773.08,499.93 C767.54,496.62 762.8,492.99 757.45,491 C752.03,488.98 745.98,487.54 740.26,487.74 C732.21,488.01 727.98,495.27 722.61,500.2 C721.93,500.82 721.32,501.98 721.37,502.85 C721.73,508.97 722.27,515.09 722.75,521.2 C716.24,517.42 709.74,513.63 703.01,509.21 C702.31,507.92 701.97,506.97 701.33,506.68 C697.59,504.97 697.47,502.16 697.94,498.52 C699.03,490.12 705.06,485.06 710.8,480.49 C716.73,475.78 723.1,469.06 732.2,474.82 C732.2,474.82 732.13,474.85 732.27,475.04 C732.7,475.43 733,475.64 733.29,475.85 C733.29,475.85 733.1,475.86 733.3,476.02 C734.09,476.37 734.68,476.56 735.27,476.74 C735.27,476.74 735.18,476.75 735.29,477.03 C736.34,477.81 737.28,478.31 738.22,478.81 C738.22,478.81 738.09,478.83 738.32,479 C739.19,479.23 739.83,479.28 740.47,479.33 C740.47,479.33 740.45,479.46 740.55,479.72 C741.22,480.27 741.79,480.56 742.37,480.85 C752.93,485.7 762.88,491.67 772.61,497.94 C776.63,500.53 779.78,504.45 783.47,508.08 z" /><path fill="#23C77E" d=" M903.99,382.08 C905.75,382.95 907.52,383.8 909.27,384.69 C913.94,387.1 917.02,390.13 916.24,396.21 C915.52,401.92 915.92,407.76 915.24,413.48 C914.22,406.1 913.78,398.78 913.34,391.46 C912.64,391.25 911.94,391.04 911.24,390.82 C906.77,395.76 902.25,400.66 897.85,405.66 C894.46,409.51 892.1,413.63 894.34,419.12 C894.89,420.45 894.18,422.31 893.67,423.97 C893.02,424.04 892.76,424.06 892.37,424.09 C892.24,424.1 892,424.02 891.79,423.84 C891.26,423.5 890.93,423.35 890.44,423.15 C890.27,423.11 889.98,422.95 889.84,422.76 C889.47,422.35 889.21,422.16 888.96,422.01 C889,422.01 889,422.08 888.79,421.86 C888.03,421.45 887.48,421.25 886.96,421.03 C886.99,421.01 886.99,421.08 886.79,420.86 C886.04,420.45 885.49,420.25 884.97,420.03 C884.99,420.01 884.99,420.07 884.78,419.86 C884.04,419.45 883.49,419.25 882.97,419.03 C882.99,419 882.98,419.07 882.77,418.81 C881.11,418.03 879.68,417.5 877.92,416.91 C877.38,416.8 877.16,416.76 876.84,416.42 C876.09,415.62 875.46,415.11 874.63,414.72 C874.09,414.62 873.76,414.41 873.29,413.91 C873.09,413.43 873.02,413.23 872.95,412.66 C872.55,411.06 872.46,409.59 871.7,408.67 C868.17,404.45 868.18,400.19 871.65,395.81 C874.4,392.34 876.62,388.43 879.53,385.11 C883.22,380.88 886.63,375.95 893.2,375.85 C893.2,375.85 893.09,375.91 893.23,376.08 C893.68,376.47 893.98,376.7 894.28,376.93 C894.28,376.93 894.06,376.89 894.23,377.12 C895.68,377.83 896.97,378.3 898.26,378.77 C898.26,378.77 898.14,378.83 898.26,379.01 C898.69,379.44 898.98,379.68 899.28,379.92 C899.28,379.92 899.04,379.93 899.25,380.07 C900.05,380.41 900.65,380.61 901.24,380.81 C901.24,380.81 901.08,380.86 901.27,381.04 C902.05,381.42 902.64,381.62 903.24,381.83 C903.24,381.83 903.13,381.84 903.19,381.93 C903.24,382.01 903.58,382.23 903.58,382.23 C903.58,382.23 903.99,382.08 903.99,382.08 z" /><path fill="#3BDC87" d=" M722.76,521.18 C722.27,515.09 721.73,508.97 721.37,502.85 C721.32,501.98 721.93,500.82 722.61,500.2 C727.98,495.27 732.21,488.01 740.26,487.74 C745.98,487.54 752.03,488.98 757.45,491 C762.8,492.99 767.54,496.62 772.78,499.79 C769.89,500.25 766.64,501.1 763.67,500.53 C759.78,499.77 756.96,500.66 754.19,503.27 C748.28,508.82 744.06,515.09 745.1,523.64 C745.3,525.29 746.08,527.77 747.25,528.25 C752.15,530.26 752.22,534.57 752.82,538.77 C752.61,538.91 752.16,538.8 751.88,538.51 C751.36,538.11 751.11,538.06 750.84,538.05 C747.08,535.7 743.32,533.36 739.2,530.42 C735.8,528.3 732.77,526.77 729.74,525.24 C729.74,525.24 729.88,525.15 729.81,524.83 C728.07,523.77 726.4,523.02 724.73,522.27 C724.73,522.27 724.84,522.24 724.67,522.04 C723.92,521.62 723.34,521.41 722.76,521.2 C722.76,521.2 722.77,521.16 722.76,521.18 z" /><path fill="#65EA91" d=" M658.01,480.91 C660.82,477.31 663.98,473.93 666.34,470.06 C669.24,465.31 671.29,460.05 674.03,455.19 C675.9,451.87 678.47,448.96 680.5,445.72 C683.25,441.31 687.7,440.79 692.79,440.37 C694.76,443.97 695.81,447.53 697.55,450.71 C698.69,452.79 700.84,454.32 702.54,456.1 C702.54,456.1 702.85,456.12 702.79,456.6 C703.47,458.38 704.22,459.7 704.61,461.03 C699.97,464.52 695.03,467.43 691.56,471.57 C686.03,478.17 676.67,483.44 680.98,494.69 C681.14,495.12 680.95,495.68 680.92,496.17 C674.36,492.37 667.8,488.57 661.02,484.12 C659.78,483.06 658.78,482.65 657.77,482.24 C657.77,482.24 657.95,482.01 657.94,481.79 C657.95,481.36 657.98,481.13 658.01,480.91 z" /><path fill="#65EA91" d=" M763.57,454.94 C761.96,453.18 760.35,451.42 758.51,449.2 C756.43,442.36 754.54,436.02 752.77,429.64 C751.47,424.97 750.92,419.78 755.24,416.82 C760.41,413.27 766.63,410.6 773.08,412.92 C780.22,415.48 787.03,418.95 793.74,422.25 C791.47,424.14 789.24,425.6 787.46,427.49 C782.1,433.2 776.42,438.72 771.84,445.03 C769.48,448.28 769.19,453.03 767.68,457.04 C766.12,456.3 764.84,455.62 763.57,454.94 z" /><path fill="#2DD384" d=" M893.02,375.56 C886.63,375.95 883.22,380.88 879.53,385.11 C876.62,388.43 874.4,392.34 871.65,395.81 C868.18,400.19 868.17,404.45 871.7,408.67 C872.46,409.59 872.55,411.06 872.55,412.65 C871.34,413.04 870.54,413.05 869.44,413.02 C868.07,412.44 867.01,411.91 865.79,411.03 C864.04,410.13 862.46,409.58 860.61,408.96 C859.9,408.62 859.44,408.36 858.79,407.87 C858.05,407.44 857.51,407.23 856.98,407.01 C857,406.99 857,407.04 856.79,406.83 C856.03,406.42 855.47,406.24 854.94,406.06 C854.95,406.08 854.91,406.1 854.91,406.1 C852.52,403.83 850.13,401.56 847.49,399.06 C852.79,388.76 858.54,377.37 864.58,366.14 C865.39,364.64 867.71,363.94 869.74,362.82 C870.14,362.76 870.1,362.83 870.25,363.03 C870.69,363.45 870.99,363.68 871.29,363.91 C871.29,363.91 871.05,363.91 871.25,364.05 C872.05,364.4 872.64,364.61 873.23,364.83 C873.23,364.83 873.13,364.83 873.19,364.92 C873.25,365.01 873.6,365.21 873.6,365.21 C873.6,365.21 873.98,365.05 873.98,365.05 C880.27,368.45 886.55,371.86 893.02,375.56 z" /><path fill="#57E38A" d=" M681.04,496.41 C680.95,495.68 681.14,495.12 680.98,494.69 C676.67,483.44 686.03,478.17 691.56,471.57 C695.03,467.43 699.97,464.52 704.92,461.18 C706.85,462.07 708.03,462.96 709.36,463.55 C712.79,465.08 716.28,466.48 719.75,467.93 C723.81,470.06 727.87,472.19 732.07,474.57 C723.1,469.06 716.73,475.78 710.8,480.49 C705.06,485.06 699.03,490.12 697.94,498.52 C697.47,502.16 697.59,504.97 701.33,506.68 C701.97,506.97 702.31,507.92 702.84,508.92 C701.75,508.69 700.61,508.12 699.14,507.69 C698.8,507.84 698.86,507.9 698.86,507.9 C694.59,505.14 690.31,502.39 686.04,499.2 C685.36,498.54 684.66,498.32 683.96,498.1 C683.47,497.95 682.97,497.79 682.12,497.72 C681.76,497.8 681.82,497.86 681.82,497.86 C681.6,497.45 681.38,497.05 681.04,496.41 z" /><path fill="#1CBB76" d=" M894.05,423.92 C894.18,422.31 894.89,420.45 894.34,419.12 C892.1,413.63 894.46,409.51 897.85,405.66 C902.25,400.66 906.77,395.76 911.24,390.82 C911.94,391.04 912.64,391.25 913.34,391.46 C913.78,398.78 914.22,406.1 914.91,413.76 C915.16,414.8 915.15,415.5 914.9,416.89 C914.43,422.7 914.19,427.83 913.63,432.81 C908.15,430.47 903,428.27 897.88,426.03 C897.91,425.99 897.99,426.05 897.74,425.82 C896.65,425.4 895.79,425.22 894.97,425.02 C895,425.01 895,425.08 894.87,424.86 C894.52,424.4 894.29,424.16 894.05,423.92 z" /><path fill="#7FF49E" d=" M793.98,422.03 C787.03,418.95 780.22,415.48 773.08,412.92 C766.63,410.6 760.41,413.27 755.24,416.82 C750.92,419.78 751.47,424.97 752.77,429.64 C754.54,436.02 756.43,442.36 758.3,448.75 C753.42,440.55 750.66,431.64 749.77,422.13 C749.7,421.34 749.74,420.12 750.22,419.76 C753.85,417.07 757.66,414.62 761.29,411.94 C764.93,409.26 768.47,408.75 772.81,410.63 C776.89,412.39 782.61,411.9 785.44,414.65 C792.41,421.42 801.81,423.13 809.5,428.15 C811.31,429.33 813.33,430.19 815.49,431.45 C815.73,431.7 815.89,431.75 815.76,431.86 C808.41,428.65 801.2,425.34 793.98,422.03 z" /><path fill="#57E38A" d=" M815.89,431.75 C815.89,431.75 815.73,431.7 815.68,431.7 C821.25,434.02 826.97,436.11 832.44,438.72 C839.68,442.18 846.73,446.03 853.83,449.76 C856.34,451.08 858.77,452.55 861.41,454.06 C861.53,454.45 861.55,454.72 861.27,454.96 C857.98,453.79 854.95,452.84 852.11,451.49 C840.71,446.05 829.37,440.49 817.87,434.69 C817.11,433.52 816.5,432.64 815.89,431.75 z" /><path fill="#7FF49E" d=" M689.21,429.14 C682.96,427.06 676.02,425.44 672.07,417.52 C679.55,413.91 686.52,410.55 693.86,407.18 C690.34,409.67 687.58,413.64 682.38,414.55 C679.91,414.99 677.91,418.15 675.45,420.3 C680.52,423.52 684.76,426.21 689.21,429.14 z" /><path fill="#0FA167" d=" M847.8,505.29 C849.17,510.39 850.64,515.46 851.86,520.59 C852.31,522.46 852.18,524.46 852.11,526.7 C850.49,522.61 848.72,518.29 847.75,513.8 C845.9,505.3 841.17,499.59 832.98,496.7 C832.65,496.59 832.47,496.04 832.17,495.25 C832.13,494.82 832.27,494.65 832.51,494.64 C833.13,494.62 833.38,494.43 833.65,494.35 C838.47,498.18 843.14,501.74 847.8,505.29 z" /><path fill="#7FF49E" d=" M622.09,561.03 C621.83,561.59 621.57,562.15 621.06,562.9 C619.7,560.32 618.59,557.56 617.7,554.16 C617.83,535.75 617.74,517.99 617.77,499.89 C621.16,500.99 624.43,502.43 627.7,503.88 C627.7,503.88 627.97,503.94 628.08,504.16 C628.19,504.39 628.27,504.69 628.19,504.79 C628.1,504.89 627.94,505.1 627.57,505.07 C624.79,504.15 622.38,503.28 619.65,502.29 C619.38,503.86 619.09,504.81 619.08,505.75 C619.05,520.38 618.86,535.01 619.2,549.63 C619.29,553.45 621.08,557.23 622.09,561.03 z" /><path fill="#017B4B" d=" M787.01,373.85 C787.58,374.17 788.15,374.48 788.88,374.98 C787.22,374.89 785.14,375.09 783.57,374.3 C774.11,369.5 765.01,371.12 756.01,375.47 C751.22,377.79 746.5,380.22 741.37,382.4 C741.03,381.82 741.06,381.44 741.09,381.07 C741.09,381.07 741.04,381.02 741.33,381 C742.09,380.67 742.57,380.37 743.06,380.06 C743.06,380.06 743.02,380 743.32,379.99 C744.1,379.67 744.58,379.36 745.06,379.05 C745.06,379.05 744.99,379.02 745.35,378.98 C746.82,378.31 747.94,377.69 749.06,377.06 C749.06,377.06 749.01,377.01 749.26,376.99 C749.51,376.98 749.95,376.79 749.95,376.79 C756.9,373.35 763.68,369.34 771.86,369.95 C774.65,370.15 777.42,370.64 780.61,371.05 C781.04,371.09 781.25,371.2 781.59,371.39 C783.62,372.34 785.32,373.09 787.01,373.85 z" /><path fill="#017B4B" d=" M810.97,385.09 C815.67,387.43 820.36,389.76 825.4,392.21 C825.73,392.33 825.93,392.27 826.06,392.46 C826.79,392.79 827.38,392.93 827.97,393.07 C827.97,393.07 827.98,393 828.1,393.31 C828.82,393.77 829.4,393.93 829.99,394.08 C829.99,394.08 829.99,394.02 830.13,394.28 C830.85,394.73 831.42,394.9 831.99,395.08 C831.99,395.08 831.98,395.02 832.12,395.29 C832.84,395.75 833.41,395.92 833.99,396.09 C833.99,396.09 833.93,396.03 833.97,396.24 C834.01,396.45 834.17,396.81 834.05,396.93 C833.93,397.06 833.69,397.31 833.69,397.31 C820.83,391.44 807.95,385.6 795.13,379.66 C793.23,378.78 791.57,377.4 789.85,375.95 C793.55,377.22 797.19,378.79 801.16,380.44 C801.5,380.52 801.88,380.44 801.86,380.56 C802.22,380.81 802.59,380.94 802.97,381.07 C802.97,381.07 802.99,381 803.11,381.31 C803.81,381.77 804.4,381.92 804.99,382.08 C804.99,382.08 804.98,382.01 805.11,382.3 C805.83,382.76 806.41,382.92 806.99,383.09 C806.99,383.09 806.99,383.02 807.13,383.29 C807.85,383.73 808.42,383.91 809,384.09 C809,384.09 808.99,384.02 809.15,384.26 C809.87,384.69 810.42,384.89 810.97,385.09 z" /><path fill="#0FA167" d=" M627.73,503.52 C624.43,502.43 621.16,500.99 617.6,500.24 C617.21,518.22 617.09,535.51 616.98,552.8 C616.65,552.3 616.04,551.8 616.04,551.3 C615.99,533.33 616,515.36 616,496.4 C620.33,498.9 624.05,501.04 627.73,503.52 z" /><path fill="#7FF49E" d=" M702.36,455.85 C700.84,454.32 698.69,452.79 697.55,450.71 C695.81,447.53 694.76,443.97 693.19,440.3 C691.79,436.78 690.61,433.54 689.51,429.92 C693.61,434.02 695.2,439.63 697.2,445.1 C698.53,448.72 700.5,452.11 702.36,455.85 z" /><path fill="#48DD87" d=" M791.14,536.7 C788.46,527.79 785.91,518.59 783.53,509 C785.56,513.66 787.43,518.71 789.65,523.88 C790,524 790.06,523.96 789.76,523.86 C789.66,524.19 789.85,524.63 790.02,525.03 C789.99,525.01 789.94,524.96 789.94,524.96 C790.87,527.82 791.95,530.65 792.63,533.57 C792.81,534.37 791.77,535.46 791.14,536.7 z" /><path fill="#7FF49E" d=" M719.55,467.72 C716.28,466.48 712.79,465.08 709.36,463.55 C708.03,462.96 706.85,462.07 705.28,461.16 C704.22,459.7 703.47,458.38 702.8,456.75 C708.37,460.13 713.86,463.82 719.55,467.72 z" /><path fill="#017B4B" d=" M617.11,553.12 C617.09,535.51 617.21,518.22 617.48,500.58 C617.74,517.99 617.83,535.75 617.62,553.82 C617.3,553.89 617.27,553.66 617.11,553.12 z" /><path fill="#2DD384" d=" M897.85,426.06 C903,428.27 908.15,430.47 913.95,432.83 C915.01,432.99 915.42,433 915.84,433.01 C915.84,433.93 915.84,434.84 915.84,435.92 C909.94,433.19 904.34,430.61 898.36,427.61 C897.93,426.82 897.89,426.44 897.85,426.06 z" /><path fill="#017B4B" d=" M897.88,426.03 C897.89,426.44 897.93,426.82 898.01,427.48 C895.52,426.86 892.89,426.16 890.47,425.01 C885.42,422.61 880.48,419.98 875.46,417.01 C875.41,416.58 875.66,416.32 875.86,416.43 C876.06,416.54 876.49,416.72 876.49,416.72 C876.49,416.72 876.94,416.71 876.94,416.71 C877.16,416.76 877.38,416.8 878.11,417.18 C880.07,418.03 881.53,418.55 882.98,419.07 C882.98,419.07 882.99,419 883.13,419.29 C883.84,419.74 884.41,419.9 884.99,420.07 C884.99,420.07 884.99,420.01 885.13,420.28 C885.85,420.73 886.42,420.91 886.99,421.08 C886.99,421.08 886.99,421.01 887.15,421.26 C887.87,421.7 888.43,421.89 889,422.08 C889,422.08 889,422.01 889.07,422.24 C889.36,422.73 889.64,422.89 889.98,422.95 C889.98,422.95 890.27,423.11 890.63,423.35 C891.33,423.73 891.66,423.87 892,424.02 C892,424.02 892.24,424.1 892.63,424.32 C893.68,424.72 894.34,424.9 895,425.08 C895,425.08 895,425.01 895.19,425.27 C896.26,425.71 897.12,425.88 897.99,426.05 C897.99,426.05 897.91,425.99 897.88,426.03 z" /><path fill="#017B4B" d=" M865.95,411.37 C867.01,411.91 868.07,412.44 869.65,413.24 C871.25,413.73 872.34,413.97 873.42,414.2 C873.76,414.41 874.09,414.62 874.55,415.07 C875.01,415.65 875.33,415.98 875.66,416.32 C875.66,416.32 875.41,416.58 875.29,416.7 C868.54,413.78 861.91,410.73 855.12,407.38 C854.95,407.07 855.24,406.73 855.54,406.78 C856.22,406.9 856.61,406.97 857,407.04 C857,407.04 857,406.99 857.19,407.22 C857.91,407.66 858.45,407.87 858.98,408.09 C859.44,408.36 859.9,408.62 860.84,409.24 C862.86,410.18 864.41,410.77 865.95,411.37 z" /><path fill="#7FF49E" d=" M696.41,406.24 C700.62,403.75 705.07,401.2 709.76,398.86 C705.55,401.43 701.1,403.81 696.41,406.24 z" /><path fill="#0FA167" d=" M787.99,470 C782.51,466.78 777.02,463.56 771.39,460.02 C771.23,459.7 771.38,459.52 771.65,459.62 C772.28,459.84 772.64,459.95 773.21,460.32 C778.39,463.59 783.34,466.61 788.21,469.72 C788.14,469.82 787.99,470 787.99,470 z" /><path fill="#23C77E" d=" M915.93,432.55 C915.42,433 915.01,432.99 914.27,432.96 C914.19,427.83 914.43,422.7 914.92,417.24 C915.46,421.96 915.74,427.03 915.93,432.55 z" /><path fill="#0FA167" d=" M646.09,513.87 C651.63,516.98 657.18,520.09 662.52,523.51 C661.58,523.5 660.84,523.17 660.07,522.86 C660.04,522.88 660.06,522.94 659.91,522.67 C659.18,522.24 658.6,522.09 658.03,521.96 C658.03,522 658.05,521.94 657.92,521.65 C657.2,521.23 656.62,521.08 656.02,520.96 C656,520.99 656.06,520.94 656.04,520.67 C655.69,520.25 655.36,520.09 655.02,519.97 C655.02,520 655.04,519.94 654.87,519.7 C654.14,519.29 653.58,519.11 653.03,518.97 C653.04,518.99 653.05,518.94 652.89,518.68 C652.17,518.26 651.6,518.1 651.03,517.97 C651.04,518 651.05,517.94 650.91,517.67 C650.2,517.27 649.63,517.13 649.05,516.96 C649.05,516.93 649,516.93 648.86,516.68 C648.16,516.27 647.6,516.12 647.04,515.96 C647.04,515.95 647.02,515.93 646.92,515.69 C646.46,515.08 646.09,514.71 645.81,514.23 C645.91,514.11 646.09,513.87 646.09,513.87 z" /><path fill="#017B4B" d=" M842.37,401.22 C846.17,402.63 850.19,404.28 854.56,406.01 C854.91,406.1 854.95,406.08 855.01,406.24 C855.08,406.39 855.24,406.73 855.24,406.73 C855.24,406.73 854.95,407.07 854.8,407.24 C850.63,405.43 846.61,403.45 842.37,401.22 z" /><path fill="#0FA167" d=" M631.9,506.18 C635.96,508.1 640.01,510.02 644.08,512.42 C644.09,512.89 643.81,513.21 643.52,513.14 C642.82,513.03 642.43,512.98 642.03,512.96 C642.04,512.99 642.05,512.93 641.92,512.65 C641.21,512.22 640.62,512.08 640.03,511.95 C640.02,511.98 640.05,511.93 639.95,511.63 C638.92,510.87 637.99,510.42 637.05,509.96 C637.04,509.94 637,509.94 636.82,509.72 C636.1,509.31 635.56,509.13 635.04,508.96 C635.05,508.98 635.05,508.94 634.9,508.67 C634.19,508.24 633.62,508.09 633.09,507.94 C633.14,507.95 633.18,507.87 633.08,507.61 C632.62,506.96 632.26,506.57 631.9,506.18 z" /><path fill="#0FA167" d=" M810.9,483.1 C808,481.63 805.11,480.17 802.17,478.26 C802.13,477.83 802.26,477.65 802.54,477.73 C803.2,477.9 803.58,477.98 803.99,478.04 C804.01,478.02 803.95,478.05 804.13,478.31 C804.85,478.86 805.4,479.16 806.2,479.63 C808.05,480.76 809.65,481.72 811.16,482.78 C811.08,482.89 810.9,483.1 810.9,483.1 z" /><path fill="#0FA167" d=" M863.05,454.93 C865.61,456.06 868.17,457.2 870.86,458.66 C871,459 870.87,459.14 870.47,459.14 C867.82,458.07 865.57,457.01 863.18,455.78 C863.04,455.61 862.77,455.26 862.84,455.17 C862.91,455.09 863.05,454.93 863.05,454.93 z" /><path fill="#48DD87" d=" M729.9,525.55 C732.77,526.77 735.8,528.3 739.02,530.17 C736.17,528.96 733.12,527.41 729.9,525.55 z" /><path fill="#0FA167" d=" M674.81,530.45 C672.54,529.55 670.21,528.32 667.45,526.82 C667.03,526.54 666.84,526.19 666.92,526.1 C666.99,526.02 667.15,525.86 667.15,525.86 C669.68,527.28 672.21,528.7 674.81,530.45 z" /><path fill="#65EA91" d=" M690.11,539.46 C687.93,538.66 685.6,537.56 683.24,536.11 C685.46,536.88 687.7,538.02 690.11,539.46 z" /><path fill="#0FA167" d=" M824.96,491.04 C822.72,489.93 820.47,488.82 818.15,487.3 C818.07,486.89 818.21,486.73 818.53,486.84 C821,488.18 823.15,489.4 825.21,490.72 C825.13,490.83 824.96,491.04 824.96,491.04 z" /><path fill="#0FA167" d=" M832.06,494.91 C829.72,493.9 827.46,492.8 825.08,491.37 C824.96,491.04 825.13,490.83 825.48,490.81 C826.21,490.88 826.59,490.98 826.98,491.05 C827.01,491.04 826.95,491.04 827.16,491.29 C828.56,492.04 829.75,492.55 830.95,493.04 C830.96,493.04 830.98,493.04 831.06,493.27 C831.39,493.74 831.67,493.92 831.99,494.01 C831.99,494 831.97,494.03 832.04,494.18 C832.11,494.34 832.27,494.65 832.27,494.65 C832.27,494.65 832.13,494.82 832.06,494.91 z" /><path fill="#017B4B" d=" M838.21,398.19 C838.73,398.6 839.26,399.01 839.86,399.66 C838.02,399.17 836.09,398.45 833.93,397.52 C833.69,397.31 833.93,397.06 834.36,396.99 C835.18,396.97 835.59,397.03 835.99,397.09 C835.99,397.09 835.99,397.02 836.16,397.3 C836.95,397.78 837.58,397.98 838.21,398.19 z" /><path fill="#0FA167" d=" M818.01,486.97 C815.64,485.97 813.35,484.89 810.98,483.45 C810.9,483.1 811.08,482.89 811.48,482.89 C814,484.18 816.1,485.45 818.21,486.73 C818.21,486.73 818.07,486.89 818.01,486.97 z" /><path fill="#0FA167" d=" M799.59,476.32 C797.48,475.42 795.38,474.52 793.24,473.17 C793.22,472.72 793.35,472.56 793.61,472.66 C794.25,472.86 794.61,472.96 794.99,473.04 C795,473.01 794.95,473.04 795.15,473.26 C795.89,473.67 796.43,473.87 796.97,474.03 C796.96,474.01 796.95,474.07 797.11,474.31 C798.08,475.1 798.89,475.64 799.67,476.22 C799.64,476.25 799.59,476.32 799.59,476.32 z" /><path fill="#65EA91" d=" M643.95,581.49 C646.05,582.35 648.33,583.49 650.72,584.97 C648.6,584.14 646.37,582.96 643.95,581.49 z" /><path fill="#65EA91" d=" M801.09,323.49 C799.24,322.77 797.2,321.78 795.1,320.44 C796.99,321.13 798.95,322.17 801.09,323.49 z" /><path fill="#48DD87" d=" M724.9,522.56 C726.4,523.02 728.07,523.77 729.76,524.9 C728.21,524.47 726.64,523.66 724.9,522.56 z" /><path fill="#0FA167" d=" M793.15,472.79 C791.4,472.17 789.71,471.47 788.01,470.38 C787.99,470 788.14,469.82 788.52,469.84 C789.88,470.3 790.86,470.74 791.89,471.16 C791.93,471.15 791.96,471.07 792.06,471.31 C792.56,471.88 792.95,472.22 793.35,472.56 C793.35,472.56 793.22,472.72 793.15,472.79 z" /><path fill="#72F098" d=" M740.74,381.1 C741.06,381.44 741.03,381.82 741.03,382.47 C739.67,383.22 738.27,383.7 736.52,384.23 C737.57,383.24 738.98,382.18 740.74,381.1 z" /><path fill="#0FA167" d=" M763.47,455.34 C764.84,455.62 766.12,456.3 767.69,457.01 C767.99,457.05 767.93,457.03 767.99,457.22 C768.06,457.4 768.23,457.74 768.16,457.82 C768.09,457.9 767.95,458.06 767.95,458.06 C766.42,457.29 764.89,456.51 763.47,455.34 z" /><path fill="#7FF49E" d=" M660.1,522.84 C660.84,523.17 661.58,523.5 662.61,523.84 C663.09,523.91 663.26,523.96 663.78,524.39 C664.47,525.16 664.82,525.54 665.18,525.91 C664.7,525.97 664.22,526.02 663.17,525.84 C661.77,524.69 660.93,523.76 660.1,522.84 z" /><path fill="#57E38A" d=" M726.15,559.51 C724.98,559.3 723.7,558.83 722.28,558.03 C723.44,558.22 724.73,558.74 726.15,559.51 z" /><path fill="#57E38A" d=" M822.83,335.84 C822.1,335.73 821.2,335.45 820.22,334.88 C820.97,334.95 821.82,335.31 822.83,335.84 z" /><path fill="#2DD384" d=" M898.07,378.48 C896.97,378.3 895.68,377.83 894.25,377.02 C895.37,377.18 896.62,377.69 898.07,378.48 z" /><path fill="#48DD87" d=" M749.05,572.51 C747.96,572.32 746.7,571.83 745.3,571.01 C746.4,571.19 747.63,571.71 749.05,572.51 z" /><path fill="#57E38A" d=" M738.15,478.57 C737.28,478.31 736.34,477.81 735.29,476.98 C736.15,477.21 737.11,477.77 738.15,478.57 z" /><path fill="#65EA91" d=" M650.88,585.51 C651.82,585.71 652.91,586.17 653.9,586.87 C652.88,586.66 651.95,586.22 650.88,585.51 z" /><path fill="#0FA167" d=" M665.15,525.95 C664.82,525.54 664.47,525.16 664.01,524.53 C664.93,524.58 665.94,524.87 667.06,525.51 C667.15,525.86 666.99,526.02 666.62,526.03 C665.84,526 665.43,525.97 665.03,525.94 C665.03,525.94 665.11,525.99 665.15,525.95 z" /><path fill="#0FA167" d=" M771.16,459.79 C770.14,459.47 769.2,459.07 768.1,458.36 C767.95,458.06 768.09,457.9 768.45,457.88 C769.21,457.93 769.6,457.99 769.99,458.03 C769.98,458 769.94,458.04 770.05,458.28 C770.57,458.85 770.98,459.19 771.38,459.52 C771.38,459.52 771.23,459.7 771.16,459.79 z" /><path fill="#7FF49E" d=" M653.78,480.05 C654.49,480.21 655.39,480.55 656.29,481.24 C655.52,481.14 654.75,480.69 653.78,480.05 z" /><path fill="#65EA91" d=" M684.14,498.3 C684.66,498.32 685.36,498.54 685.91,498.95 C685.28,498.92 684.8,498.71 684.14,498.3 z" /><path fill="#65EA91" d=" M692.75,540.77 C692.11,540.73 691.22,540.49 690.26,539.96 C690.95,539.97 691.73,540.27 692.75,540.77 z" /><path fill="#7FF49E" d=" M657.92,482.52 C658.78,482.65 659.78,483.06 660.85,483.82 C659.96,483.72 659.01,483.26 657.92,482.52 z" /><path fill="#57E38A" d=" M740.39,479.18 C739.83,479.28 739.19,479.23 738.31,478.94 C738.82,478.81 739.56,478.92 740.39,479.18 z" /><path fill="#7FF49E" d=" M631.65,506.07 C632.26,506.57 632.62,506.96 632.75,507.6 C631.67,507.26 630.81,506.66 629.99,506.02 C630.03,505.97 630.11,505.87 630.31,505.89 C630.5,505.92 630.87,505.81 630.87,505.81 C631.05,505.86 631.22,505.91 631.65,506.07 z" /><path fill="#72F098" d=" M778.09,311.56 C777.34,311.68 776.44,311.47 775.29,311 C776,310.9 776.96,311.06 778.09,311.56 z" /><path fill="#0FA167" d=" M802.06,477.91 C801.21,477.71 800.42,477.42 799.61,476.73 C799.59,476.32 799.64,476.25 799.92,476.38 C800.88,476.88 801.57,477.27 802.26,477.65 C802.26,477.65 802.13,477.83 802.06,477.91 z" /><path fill="#72F098" d=" M781.27,312.63 C780.74,312.7 780.12,312.55 779.25,312.18 C779.73,312.11 780.45,312.26 781.27,312.63 z" /><path fill="#65EA91" d=" M794.16,319.59 C793.49,319.55 792.66,319.24 791.78,318.57 C792.48,318.59 793.25,318.95 794.16,319.59 z" /><path fill="#0FA167" d=" M644.23,512.74 C644.79,512.92 645.2,513.27 645.85,513.74 C646.09,513.87 645.91,514.11 645.54,514.14 C644.79,514.09 644.42,514.01 644.04,513.96 C644.04,514 644.07,513.93 644.01,513.75 C643.96,513.56 643.81,513.21 643.81,513.21 C643.81,513.21 644.09,512.89 644.23,512.74 z" /><path fill="#7FF49E" d=" M628.95,504.65 C629.14,504.73 629.32,504.82 629.76,505.22 C630,505.53 630.11,505.87 630.11,505.87 C630.11,505.87 630.03,505.97 629.71,505.97 C628.9,505.68 628.42,505.39 627.94,505.1 C627.94,505.1 628.1,504.89 628.36,504.81 C628.62,504.73 628.95,504.65 628.95,504.65 z" /><path fill="#048A56" d=" M803.33,634.43 C803.5,634.11 803.97,633.66 804.77,633.13 C804.61,633.47 804.13,633.88 803.33,634.43 z" /><path fill="#048A56" d=" M805.32,633.09 C805.5,632.78 806,632.46 806.8,632.11 C806.61,632.41 806.12,632.75 805.32,633.09 z" /><path fill="#017B4B" d=" M775.09,586.58 C774.82,586.68 774.51,586.58 774.09,586.23 C774.34,586.12 774.69,586.25 775.09,586.58 z" /><path fill="#57E38A" d=" M722.09,557.5 C721.65,557.59 721.06,557.39 720.27,556.94 C720.69,556.86 721.32,557.03 722.09,557.5 z" /><path fill="#57E38A" d=" M717.11,554.48 C716.68,554.56 716.09,554.35 715.34,553.87 C715.76,553.8 716.36,554 717.11,554.48 z" /><path fill="#57E38A" d=" M715.14,553.42 C714.69,553.53 714.09,553.35 713.28,552.92 C713.71,552.82 714.34,552.97 715.14,553.42 z" /><path fill="#3BDC87" d=" M873.07,364.54 C872.64,364.61 872.05,364.4 871.26,363.94 C871.67,363.87 872.3,364.06 873.07,364.54 z" /><path fill="#48DD87" d=" M722.94,521.46 C723.34,521.41 723.92,521.62 724.68,522.1 C724.27,522.15 723.69,521.94 722.94,521.46 z" /><path fill="#7FF49E" d=" M694.43,407.23 C694.61,406.94 695.11,406.58 695.93,406.21 C695.74,406.53 695.25,406.85 694.43,407.23 z" /><path fill="#57E38A" d=" M735.11,476.46 C734.68,476.56 734.09,476.37 733.3,475.93 C733.72,475.84 734.34,476.01 735.11,476.46 z" /><path fill="#72F098" d=" M732.4,386.21 C732.58,385.91 733.07,385.55 733.89,385.17 C733.71,385.49 733.22,385.82 732.4,386.21 z" /><path fill="#57E38A" d=" M742.22,480.57 C741.79,480.56 741.22,480.27 740.52,479.67 C740.95,479.66 741.51,479.97 742.22,480.57 z" /><path fill="#2DD384" d=" M901.08,380.52 C900.65,380.61 900.05,380.41 899.25,379.95 C899.67,379.87 900.3,380.06 901.08,380.52 z" /><path fill="#72F098" d=" M734.39,385.21 C734.58,384.92 735.09,384.57 735.92,384.21 C735.74,384.52 735.23,384.83 734.39,385.21 z" /><path fill="#2DD384" d=" M903.06,381.56 C902.64,381.62 902.05,381.42 901.25,380.95 C901.66,380.89 902.27,381.09 903.06,381.56 z" /><path fill="#48DD87" d=" M704.67,617 C704.63,616.91 704.87,616.7 704.87,616.7 C704.87,616.7 705.02,616.84 704.96,616.93 C704.91,617.02 704.72,617.08 704.67,617 z" /><path fill="#57E38A" d=" M718.19,555.62 C718.01,555.65 717.72,555.42 717.27,554.93 C717.43,554.9 717.75,555.12 718.19,555.62 z" /><path fill="#57E38A" d=" M720.15,556.59 C719.96,556.7 719.65,556.53 719.16,556.17 C719.33,556.09 719.68,556.2 720.15,556.59 z" /><path fill="#0FA167" d=" M861.62,454.99 C861.55,454.72 861.53,454.45 861.67,454.03 C861.97,454.08 862.17,454.27 862.71,454.7 C863.05,454.93 862.91,455.09 862.64,455.15 C862.37,455.2 861.97,455.16 861.89,455.1 C861.81,455.04 861.62,454.99 861.62,454.99 z" /><path fill="#048A56" d=" M807.33,632.03 C807.33,631.81 807.66,631.55 808.28,631.16 C808.26,631.34 807.96,631.66 807.33,632.03 z" /><path fill="#3BDC87" d=" M704.91,617.89 C704.83,618.11 704.78,618.36 704.73,618.6 C704.69,618.44 704.66,618.27 704.8,618.03 C704.99,617.96 704.93,617.92 704.91,617.89 z" /><path fill="#57E38A" d=" M727.62,560.52 C727.38,560.63 726.96,560.41 726.29,559.93 C726.51,559.85 726.97,560.02 727.62,560.52 z" /><path fill="#48DD87" d=" M749.8,572.95 C749.99,573.07 749.6,573.22 749.6,573.22 C749.6,573.22 749.26,573.02 749.2,572.88 C749.15,572.75 749.6,572.83 749.8,572.95 z" /><path fill="#65EA91" d=" M801.8,323.91 C801.98,324.03 801.6,324.19 801.6,324.19 C801.6,324.19 801.28,323.98 801.23,323.85 C801.18,323.71 801.62,323.78 801.8,323.91 z" /><path fill="#3BDC87" d=" M764.15,580.15 C764.21,579.89 764.25,579.61 764.29,579.32 C764.36,579.53 764.43,579.73 764.28,580 C764.05,580.06 764.12,580.12 764.15,580.15 z" /><path fill="#0FA167" d=" M628.92,504.46 C628.95,504.65 628.62,504.73 628.44,504.71 C628.27,504.69 628.19,504.39 628.21,504.23 C628.51,503.93 628.74,504 628.92,504.46 z" /><path fill="#2DD384" d=" M899.17,379.64 C898.98,379.68 898.69,379.44 898.24,378.95 C898.42,378.92 898.74,379.14 899.17,379.64 z" /><path fill="#0FA167" d=" M630.31,505.89 C630.11,505.87 630,505.53 630.02,505.36 C630.33,505.13 630.55,505.24 630.78,505.66 C630.87,505.81 630.5,505.92 630.31,505.89 z" /><path fill="#57E38A" d=" M681.72,497.78 C681.65,498.07 681.62,498.39 681.58,498.71 C681.51,498.51 681.43,498.31 681.59,497.98 C681.82,497.86 681.76,497.8 681.72,497.78 z" /><path fill="#57E38A" d=" M698.76,507.81 C698.67,508.09 698.61,508.39 698.56,508.7 C698.49,508.49 698.43,508.28 698.61,507.99 C698.86,507.9 698.8,507.84 698.76,507.81 z" /><path fill="#2DD384" d=" M903.79,381.96 C903.99,382.08 903.58,382.23 903.58,382.23 C903.58,382.23 903.24,382.01 903.18,381.87 C903.13,381.73 903.59,381.84 903.79,381.96 z" /><path fill="#7FF49E" d=" M657.67,481.13 C657.98,481.13 657.95,481.36 657.84,481.91 C657.49,482.24 657.23,482.2 656.85,481.97 C656.91,481.67 657.12,481.51 657.67,481.13 z" /><path fill="#3BDC87" d=" M871.18,363.63 C870.99,363.68 870.69,363.45 870.23,362.99 C870.41,362.95 870.74,363.15 871.18,363.63 z" /><path fill="#57E38A" d=" M733.18,475.59 C733,475.64 732.7,475.43 732.26,474.99 C732.43,474.95 732.75,475.14 733.18,475.59 z" /><path fill="#72F098" d=" M731.41,387.17 C731.36,386.98 731.58,386.69 732.03,386.23 C732.07,386.4 731.87,386.74 731.41,387.17 z" /><path fill="#48DD87" d=" M789.97,524.01 C790.09,524.32 790.24,524.62 790.16,524.94 C789.94,524.96 789.99,525.01 790.02,524.76 C790.05,524.32 790.05,524.14 790.06,523.96 C790.06,523.96 790,524 789.97,524.01 z" /><path fill="#2DD384" d=" M894.17,376.65 C893.98,376.7 893.68,376.47 893.21,376.02 C893.38,375.98 893.72,376.17 894.17,376.65 z" /><path fill="#3BDC87" d=" M873.78,364.95 C873.98,365.05 873.6,365.21 873.6,365.21 C873.6,365.21 873.25,365.01 873.19,364.87 C873.13,364.74 873.57,364.85 873.78,364.95 z" /><path fill="#2DD384" d=" M751.02,538.14 C751.11,538.06 751.36,538.11 751.78,538.3 C751.69,538.36 751.44,538.31 751.02,538.14 z" /><path fill="#2DD384" d=" M863.32,455.95 C865.57,457.01 867.82,458.07 870.4,459.21 C872.31,460.18 873.89,461.08 875.9,462.26 C876.54,462.73 876.75,462.88 876.99,463 C880.22,464.48 883.46,465.97 886.97,467.67 C884.56,470.32 882.08,473.07 879.1,475.06 C876.82,476.59 873.69,476.81 871.32,478.25 C869.05,479.62 867.11,481.66 865.29,483.65 C861.32,488.01 857.42,492.44 853.67,497 C851.69,499.41 850.08,502.15 848.05,505.01 C843.14,501.74 838.47,498.18 833.27,494.34 C832.48,494.04 832.22,494.03 831.97,494.03 C831.97,494.03 831.99,494 831.85,493.82 C831.51,493.39 831.26,493.19 830.98,493.04 C830.98,493.04 830.96,493.04 830.85,492.71 C829.47,491.93 828.21,491.49 826.95,491.04 C826.95,491.04 827.01,491.04 826.93,490.66 C827.28,487.2 826.76,483.48 828.32,481.17 C832.41,475.11 837.45,469.69 842.04,463.96 C843.7,461.88 844.97,459.25 848.36,461.34 C848.77,461.59 849.92,461.42 850.16,461.06 C853.04,456.72 857.98,457.42 862.38,456.05 C862.91,455.99 863.12,455.97 863.32,455.95 z" /><path fill="#1CBB76" d=" M901.88,489.11 C902.09,489.08 902.3,489.06 902.84,488.99 C906.02,486.8 908.89,484.65 912.63,481.85 C912.88,487.72 914.79,493.15 911.11,497.64 C906.79,502.92 903.03,509.14 895.22,510.39 C893.66,510.64 892.06,512.28 890.99,513.67 C885.2,521.12 878.06,526.33 868.7,528.47 C866.92,528.88 865.3,530.47 863.83,531.77 C858.86,536.16 856.71,535.61 853.79,528.66 C854.84,526.76 855.95,525.21 857.4,523.21 C859.53,521.08 861.27,519.36 863.1,517.74 C865.41,515.69 867.69,513.58 870.18,511.75 C876.51,507.13 882.9,502.59 889.35,498.15 C891.7,496.53 894.43,495.45 896.76,493.82 C898.64,492.49 900.18,490.69 901.88,489.11 z" /><path fill="#23C77E" d=" M914.71,498.57 C914.89,499.67 914.89,500.59 914.89,501.5 C914.59,501.48 914.3,501.47 914.01,501.45 C914.19,500.43 914.36,499.41 914.71,498.57 z" /><path fill="#23C77E" d=" M914.63,517.13 C914.67,517.47 914.59,517.72 914.5,517.96 C914.4,517.88 914.21,517.78 914.22,517.73 C914.29,517.49 914.41,517.26 914.63,517.13 z" /><path fill="#57E38A" d=" M876.88,462.83 C876.75,462.88 876.54,462.73 876.23,462.39 C876.41,462.26 876.63,462.4 876.88,462.83 z" /><path fill="#72F098" d=" M748.69,377.05 C747.94,377.69 746.82,378.31 745.37,379 C746.14,378.39 747.23,377.71 748.69,377.05 z" /><path fill="#72F098" d=" M744.77,379.09 C744.58,379.36 744.1,379.67 743.32,380.02 C743.5,379.75 743.99,379.44 744.77,379.09 z" /><path fill="#72F098" d=" M742.76,380.09 C742.57,380.37 742.09,380.67 741.31,381.03 C741.49,380.77 741.98,380.45 742.76,380.09 z" /><path fill="#72F098" d=" M749.82,376.71 C749.95,376.79 749.51,376.98 749.27,377.03 C749.16,376.76 749.38,376.61 749.82,376.71 z" /><path fill="#65EA91" d=" M786.92,373.49 C785.32,373.09 783.62,372.34 781.69,371.32 C783.23,371.75 785.03,372.44 786.92,373.49 z" /><path fill="#57E38A" d=" M810.77,384.87 C810.42,384.89 809.87,384.69 809.12,384.27 C809.48,384.25 810.03,384.45 810.77,384.87 z" /><path fill="#57E38A" d=" M808.79,383.87 C808.42,383.91 807.85,383.73 807.1,383.3 C807.48,383.25 808.04,383.45 808.79,383.87 z" /><path fill="#57E38A" d=" M804.78,381.86 C804.4,381.92 803.81,381.77 803.09,381.34 C803.49,381.26 804.04,381.45 804.78,381.86 z" /><path fill="#57E38A" d=" M806.79,382.87 C806.41,382.92 805.83,382.76 805.09,382.32 C805.49,382.26 806.04,382.45 806.79,382.87 z" /><path fill="#57E38A" d=" M802.83,380.87 C802.59,380.94 802.22,380.81 801.89,380.37 C802.23,380.21 802.48,380.41 802.83,380.87 z" /><path fill="#0FA167" d=" M901.49,489.13 C900.18,490.69 898.64,492.49 896.76,493.82 C894.43,495.45 891.7,496.53 889.35,498.15 C882.9,502.59 876.51,507.13 870.18,511.75 C867.69,513.58 865.41,515.69 863.1,517.74 C861.27,519.36 859.53,521.08 857.43,522.82 C860.22,515.13 865.25,509.07 873.11,505.95 C879.89,503.26 886.12,499.95 890.01,493.55 C892.69,489.13 897.36,490.48 901.49,489.13 z" /><path fill="#72F098" d=" M627.57,505.07 C628.42,505.39 628.9,505.68 629.67,506.02 C630.81,506.66 631.67,507.26 632.85,507.86 C633.18,507.87 633.14,507.95 633.28,508.17 C633.96,508.57 634.5,508.75 635.05,508.94 C635.05,508.94 635.05,508.98 635.22,509.18 C635.94,509.57 636.47,509.76 637,509.94 C637,509.94 637.04,509.94 637.19,510.24 C638.24,511.01 639.14,511.47 640.05,511.93 C640.05,511.93 640.02,511.98 640.22,512.18 C640.96,512.56 641.51,512.75 642.05,512.93 C642.05,512.93 642.04,512.99 642.23,513.19 C642.97,513.56 643.52,513.75 644.07,513.93 C644.07,513.93 644.04,514 644.18,514.25 C645.22,514.98 646.12,515.46 647.02,515.93 C647.02,515.93 647.04,515.95 647.23,516.18 C647.95,516.58 648.47,516.76 649,516.93 C649,516.93 649.05,516.93 649.24,517.18 C649.97,517.59 650.51,517.76 651.05,517.94 C651.05,517.94 651.04,518 651.22,518.19 C651.96,518.56 652.5,518.75 653.05,518.94 C653.05,518.94 653.04,518.99 653.22,519.19 C653.96,519.57 654.5,519.76 655.04,519.94 C655.04,519.94 655.02,520 655.16,520.17 C655.5,520.61 655.76,520.81 656.06,520.94 C656.06,520.94 656,520.99 656.21,521.18 C656.97,521.56 657.51,521.75 658.05,521.94 C658.05,521.94 658.03,522 658.22,522.18 C658.96,522.56 659.51,522.75 660.06,522.94 C660.06,522.94 660.04,522.88 660.07,522.86 C660.93,523.76 661.77,524.69 662.8,525.85 C661.07,526.71 658.99,528.1 657.21,527.78 C653.84,527.18 651.71,528.02 650.36,531.03 C646.45,539.7 640.5,546.56 632.69,552.01 C630.47,553.56 629.25,556.46 627.27,558.44 C626.09,559.6 624.32,560.17 622.46,561.02 C621.08,557.23 619.29,553.45 619.2,549.63 C618.86,535.01 619.05,520.38 619.08,505.75 C619.09,504.81 619.38,503.86 619.65,502.29 C622.38,503.28 624.79,504.15 627.57,505.07 z" /><path fill="#72F098" d=" M665.25,526.16 C665.43,525.97 665.84,526 666.54,526.11 C666.84,526.19 667.03,526.54 667.13,526.72 C666.64,526.73 666.05,526.56 665.25,526.16 z" /><path fill="#48DD87" d=" M835.78,396.87 C835.59,397.03 835.18,396.97 834.48,396.86 C834.17,396.81 834.01,396.45 833.94,396.27 C834.43,396.28 835,396.47 835.78,396.87 z" /><path fill="#48DD87" d=" M833.79,395.88 C833.41,395.92 832.84,395.75 832.09,395.32 C832.48,395.26 833.03,395.46 833.79,395.88 z" /><path fill="#48DD87" d=" M837.96,397.97 C837.58,397.98 836.95,397.78 836.13,397.31 C836.52,397.28 837.12,397.52 837.96,397.97 z" /><path fill="#48DD87" d=" M831.78,394.87 C831.42,394.9 830.85,394.73 830.1,394.3 C830.48,394.26 831.03,394.46 831.78,394.87 z" /><path fill="#48DD87" d=" M829.79,393.87 C829.4,393.93 828.82,393.77 828.09,393.34 C828.49,393.26 829.04,393.46 829.79,393.87 z" /><path fill="#48DD87" d=" M827.77,392.86 C827.38,392.93 826.79,392.79 826.08,392.36 C826.49,392.27 827.03,392.46 827.77,392.86 z" /><path fill="#2DD384" d=" M882.77,418.81 C881.53,418.55 880.07,418.03 878.43,417.24 C879.68,417.5 881.11,418.03 882.77,418.81 z" /><path fill="#3BDC87" d=" M873.29,413.91 C872.34,413.97 871.25,413.73 869.95,413.28 C870.54,413.05 871.34,413.04 872.55,413.03 C873.02,413.23 873.09,413.43 873.29,413.91 z" /><path fill="#3BDC87" d=" M875.86,416.43 C875.33,415.98 875.01,415.65 874.75,414.96 C875.46,415.11 876.09,415.62 876.84,416.42 C876.94,416.71 876.49,416.72 876.49,416.72 C876.49,416.72 876.06,416.54 875.86,416.43 z" /><path fill="#2DD384" d=" M888.79,421.86 C888.43,421.89 887.87,421.7 887.12,421.28 C887.48,421.25 888.03,421.45 888.79,421.86 z" /><path fill="#2DD384" d=" M886.79,420.86 C886.42,420.91 885.85,420.73 885.11,420.31 C885.49,420.25 886.04,420.45 886.79,420.86 z" /><path fill="#2DD384" d=" M894.87,424.86 C894.34,424.9 893.68,424.72 892.76,424.31 C892.76,424.06 893.02,424.04 893.67,423.97 C894.29,424.16 894.52,424.4 894.87,424.86 z" /><path fill="#2DD384" d=" M884.78,419.86 C884.41,419.9 883.84,419.74 883.1,419.31 C883.49,419.25 884.04,419.45 884.78,419.86 z" /><path fill="#2DD384" d=" M889.84,422.76 C889.64,422.89 889.36,422.73 889.03,422.24 C889.21,422.16 889.47,422.35 889.84,422.76 z" /><path fill="#1CBB76" d=" M891.79,423.84 C891.66,423.87 891.33,423.73 890.8,423.39 C890.93,423.35 891.26,423.5 891.79,423.84 z" /><path fill="#48DD87" d=" M791.85,471.17 C790.86,470.74 789.88,470.3 788.59,469.74 C783.34,466.61 778.39,463.59 773.07,460.03 C771.79,459 770.86,458.52 769.94,458.04 C769.94,458.04 769.98,458 769.79,457.8 C769.04,457.42 768.49,457.23 767.93,457.03 C767.93,457.03 767.99,457.05 767.98,457.08 C769.19,453.03 769.48,448.28 771.84,445.03 C776.42,438.72 782.1,433.2 787.46,427.49 C789.24,425.6 791.47,424.14 793.74,422.25 C801.2,425.34 808.41,428.65 815.76,431.86 C816.5,432.64 817.11,433.52 817.86,435.08 C816.97,438.14 816.41,440.92 814.82,442.83 C811.99,446.22 808.65,449.23 805.27,452.09 C803.7,453.42 801.62,454.37 799.62,454.92 C795.03,456.19 792.61,459.15 792.08,463.7 C791.79,466.17 791.91,468.68 791.85,471.17 z" /><path fill="#3BDC87" d=" M865.79,411.03 C864.41,410.77 862.86,410.18 861.1,409.31 C862.46,409.58 864.04,410.13 865.79,411.03 z" /><path fill="#3BDC87" d=" M855.54,406.78 C855.24,406.73 855.08,406.39 855,406.22 C855.47,406.24 856.03,406.42 856.79,406.83 C856.61,406.97 856.22,406.9 855.54,406.78 z" /><path fill="#3BDC87" d=" M858.79,407.87 C858.45,407.87 857.91,407.66 857.17,407.23 C857.51,407.23 858.05,407.44 858.79,407.87 z" /><path fill="#2DD384" d=" M897.74,425.82 C897.12,425.88 896.26,425.71 895.16,425.28 C895.79,425.22 896.65,425.4 897.74,425.82 z" /><path fill="#3BDC87" d=" M791.89,471.16 C791.91,468.68 791.79,466.17 792.08,463.7 C792.61,459.15 795.03,456.19 799.62,454.92 C801.62,454.37 803.7,453.42 805.27,452.09 C808.65,449.23 811.99,446.22 814.82,442.83 C816.41,440.92 816.97,438.14 818,435.37 C829.37,440.49 840.71,446.05 852.11,451.49 C854.95,452.84 857.98,453.79 861.27,454.96 C861.62,454.99 861.81,455.04 861.91,455.33 C862.01,455.62 862.07,456.09 862.07,456.09 C857.98,457.42 853.04,456.72 850.16,461.06 C849.92,461.42 848.77,461.59 848.36,461.34 C844.97,459.25 843.7,461.88 842.04,463.96 C837.45,469.69 832.41,475.11 828.32,481.17 C826.76,483.48 827.28,487.2 826.9,490.67 C826.59,490.98 826.21,490.88 825.57,490.71 C823.15,489.4 821,488.18 818.53,486.84 C816.1,485.45 814,484.18 811.57,482.79 C809.65,481.72 808.05,480.76 806.04,479.35 C805.07,478.61 804.51,478.33 803.95,478.05 C803.95,478.05 804.01,478.02 803.82,477.74 C801.41,476.32 799.18,475.19 796.95,474.07 C796.95,474.07 796.96,474.01 796.77,473.82 C796.03,473.44 795.49,473.24 794.95,473.04 C794.95,473.04 795,473.01 794.83,472.76 C793.76,472.03 792.86,471.55 791.96,471.07 C791.96,471.07 791.93,471.15 791.89,471.16 z" /><path fill="#3BDC87" d=" M832.04,494.18 C832.22,494.03 832.48,494.04 833.11,494.06 C833.38,494.43 833.13,494.62 832.51,494.64 C832.27,494.65 832.11,494.34 832.04,494.18 z" /><path fill="#65EA91" d=" M770.05,458.28 C770.86,458.52 771.79,459 772.85,459.78 C772.64,459.95 772.28,459.84 771.65,459.62 C770.98,459.19 770.57,458.85 770.05,458.28 z" /><path fill="#7FF49E" d=" M646.92,515.69 C646.12,515.46 645.22,514.98 644.18,514.22 C644.42,514.01 644.79,514.09 645.44,514.26 C646.09,514.71 646.46,515.08 646.92,515.69 z" /><path fill="#7FF49E" d=" M659.91,522.67 C659.51,522.75 658.96,522.56 658.22,522.15 C658.6,522.09 659.18,522.24 659.91,522.67 z" /><path fill="#7FF49E" d=" M648.86,516.68 C648.47,516.76 647.95,516.58 647.23,516.19 C647.6,516.12 648.16,516.27 648.86,516.68 z" /><path fill="#7FF49E" d=" M650.91,517.67 C650.51,517.76 649.97,517.59 649.25,517.2 C649.63,517.13 650.2,517.27 650.91,517.67 z" /><path fill="#7FF49E" d=" M652.89,518.68 C652.5,518.75 651.96,518.56 651.22,518.16 C651.6,518.1 652.17,518.26 652.89,518.68 z" /><path fill="#7FF49E" d=" M654.87,519.7 C654.5,519.76 653.96,519.57 653.22,519.16 C653.58,519.11 654.14,519.29 654.87,519.7 z" /><path fill="#7FF49E" d=" M657.92,521.65 C657.51,521.75 656.97,521.56 656.24,521.15 C656.62,521.08 657.2,521.23 657.92,521.65 z" /><path fill="#7FF49E" d=" M656.04,520.67 C655.76,520.81 655.5,520.61 655.16,520.15 C655.36,520.09 655.69,520.25 656.04,520.67 z" /><path fill="#7FF49E" d=" M639.95,511.63 C639.14,511.47 638.24,511.01 637.19,510.26 C637.99,510.42 638.92,510.87 639.95,511.63 z" /><path fill="#7FF49E" d=" M634.9,508.67 C634.5,508.75 633.96,508.57 633.23,508.16 C633.62,508.09 634.19,508.24 634.9,508.67 z" /><path fill="#7FF49E" d=" M636.82,509.72 C636.47,509.76 635.94,509.57 635.21,509.16 C635.56,509.13 636.1,509.31 636.82,509.72 z" /><path fill="#7FF49E" d=" M641.92,512.65 C641.51,512.75 640.96,512.56 640.23,512.16 C640.62,512.08 641.21,512.22 641.92,512.65 z" /><path fill="#7FF49E" d=" M644.01,513.75 C643.52,513.75 642.97,513.56 642.22,513.16 C642.43,512.98 642.82,513.03 643.52,513.14 C643.81,513.21 643.96,513.56 644.01,513.75 z" /><path fill="#48DD87" d=" M797.11,474.31 C799.18,475.19 801.41,476.32 803.8,477.76 C803.58,477.98 803.2,477.9 802.54,477.73 C801.57,477.27 800.88,476.88 799.95,476.35 C798.89,475.64 798.08,475.1 797.11,474.31 z" /><path fill="#48DD87" d=" M804.13,478.31 C804.51,478.33 805.07,478.61 805.78,479.18 C805.4,479.16 804.85,478.86 804.13,478.31 z" /><path fill="#57E38A" d=" M862.38,456.05 C862.07,456.09 862.01,455.62 861.99,455.39 C861.97,455.16 862.37,455.2 862.57,455.23 C862.77,455.26 863.04,455.61 863.18,455.78 C863.12,455.97 862.91,455.99 862.38,456.05 z" /><path fill="#3BDC87" d=" M827.16,491.29 C828.21,491.49 829.47,491.93 830.84,492.71 C829.75,492.55 828.56,492.04 827.16,491.29 z" /><path fill="#3BDC87" d=" M831.06,493.27 C831.26,493.19 831.51,493.39 831.85,493.83 C831.67,493.92 831.39,493.74 831.06,493.27 z" /><path fill="#48DD87" d=" M792.06,471.31 C792.86,471.55 793.76,472.03 794.82,472.78 C794.61,472.96 794.25,472.86 793.61,472.66 C792.95,472.22 792.56,471.88 792.06,471.31 z" /><path fill="#48DD87" d=" M795.15,473.26 C795.49,473.24 796.03,473.44 796.78,473.85 C796.43,473.87 795.89,473.67 795.15,473.26 z" /><path fill="#65EA91" d=" M767.99,457.22 C768.49,457.23 769.04,457.42 769.8,457.83 C769.6,457.99 769.21,457.93 768.52,457.8 C768.23,457.74 768.06,457.4 767.99,457.22 z" /></svg>
